<?xml version="1.0" encoding="UTF-8" standalone="no"?>
<!-- Created with Inkscape (http://www.inkscape.org/) -->

<svg
   xmlns:dc="http://purl.org/dc/elements/1.1/"
   xmlns:cc="http://creativecommons.org/ns#"
   xmlns:rdf="http://www.w3.org/1999/02/22-rdf-syntax-ns#"
   xmlns:svg="http://www.w3.org/2000/svg"
   xmlns="http://www.w3.org/2000/svg"
   xmlns:sodipodi="http://sodipodi.sourceforge.net/DTD/sodipodi-0.dtd"
   xmlns:inkscape="http://www.inkscape.org/namespaces/inkscape"
   version="1.1"
   id="svg7448"
   xml:space="preserve"
   width="315.02667"
   height="327.51999"
   viewBox="0 0 315.02667 327.51999"
   sodipodi:docname="logo_vbc_kanti_baden_schwarz.svg"
   inkscape:version="0.92.4 (5da689c313, 2019-01-14)"
   inkscape:export-filename="C:\Users\danie\OneDrive\Dokumente\VBC Kanti Baden\Vereinslogos\logo-package\logo_vbc_kanti_baden_schwarz.png"
   inkscape:export-xdpi="155.93257"
   inkscape:export-ydpi="155.93257"><metadata
     id="metadata7454"><rdf:RDF><cc:Work
         rdf:about=""><dc:format>image/svg+xml</dc:format><dc:type
           rdf:resource="http://purl.org/dc/dcmitype/StillImage" /><dc:title></dc:title></cc:Work></rdf:RDF></metadata><defs
     id="defs7452" /><sodipodi:namedview
     pagecolor="#ffffff"
     bordercolor="#666666"
     borderopacity="1"
     objecttolerance="10"
     gridtolerance="10"
     guidetolerance="10"
     inkscape:pageopacity="0"
     inkscape:pageshadow="2"
     inkscape:window-width="2560"
     inkscape:window-height="1346"
     id="namedview7450"
     showgrid="false"
     inkscape:zoom="2"
     inkscape:cx="226.05822"
     inkscape:cy="73.078419"
     inkscape:window-x="-11"
     inkscape:window-y="1789"
     inkscape:window-maximized="1"
     inkscape:current-layer="g7458" /><g
     id="g7456"
     inkscape:groupmode="layer"
     inkscape:label="ink_ext_XXXXXX"
     transform="matrix(1.3333333,0,0,-1.3333333,0,327.52)"><g
       id="g7458"
       transform="scale(0.1)"><path
         d="m 1112.79,1162.68 h -51.94 l -16.48,134.48 h -0.59 l -23.69,-134.48 h -40.992 l 34.412,195.14 h 52.77 l 15.36,-126.8 h 0.54 l 22.37,126.8 h 42.61 z m -457.485,861.53 c 0.015,-0.11 0.066,-0.28 0.086,-0.41 l -0.059,-0.33 c -0.019,0.24 0,0.49 -0.027,0.74 -0.168,0.89 -0.254,1.59 -0.188,1.8 0.117,-0.58 0.125,-1.2 0.188,-1.8 z M 2074.8,1755.46 c -13.61,5.51 -28.71,6.25 -42.73,10.15 -20.08,5.59 -38.7,11.55 -59.3,15.62 -1.43,0.68 -2.93,1.39 -4.38,2.06 -11.95,5.44 -22.57,3.51 -33.1,0.51 -3.5,-1 -7.03,-2.14 -10.8,-3.28 -8.67,-1.03 -10.8,-1.28 -18.21,-3.04 -120.25,-20.7 -244.96,-26.56 -365.97,-31.41 -12.13,-0.49 -24.22,-0.96 -36.19,-1.44 -52.13,-3.33 -89.03,-3.33 -152.2,16.21 -8.56,2.66 -16.94,5.32 -25.39,7.91 -3.36,1.02 -6.75,2.03 -10.11,3.05 -11.99,7.36 -48.87,7.36 -60.02,5.78 -3.15,-0.47 -6.51,-1.12 -10.04,-1.99 -7.19,-1.77 -15.24,-4.43 -24.22,-8.42 -6.77,-3.03 -13.22,-6.33 -19.58,-9.77 -29.67,-15.99 -124.1,-66.78 -146.48,-13.84 -8.37,19.84 8.58,41.22 7.74,61.41 -0.85,20.51 -12.6,34.49 -24.4,49.72 -9.7,12.51 -14.29,27.9 -23.2,40.87 -13.28,19.39 -57.743,46.2 -79.743,53.03 -21.641,6.75 -48.872,-2.49 -67.461,-14.09 -30.508,-19.03 -66.243,-69.2 -65.891,-107.61 0.234,-24.09 18.867,-47.08 29.922,-67.94 2.09,-4 28.555,-47.4 26.808,-49.34 -8.417,-9.27 -23.722,-12.49 -35.609,-15.36 -8.824,-2.16 -18.23,-2.55 -27.254,-3.3 -29.304,-2.33 -58.847,-3.49 -88.222,-3.29 -13.985,0.1 -27.918,0.7 -41.829,1.75 -5.996,0.43 -10.789,1.3 -16.382,2.99 -27.61,8.29 -44.18,4.21 -33.391,39.54 2.484,8.2 5.344,16.18 8.176,24.16 15.117,40.67 33.543,78.74 56.297,116.64 1.504,2.5 18.449,24.66 29.66,37.85 2.769,2.03 5.918,4.35 9.402,6.6 0.242,0.15 0.469,0.31 0.703,0.44 13.449,6.66 30.614,11.35 42.824,19.99 11.5,8.12 28.805,11.66 43.083,17.59 0.277,0.09 0.277,0.36 0.625,0.4 0.98,0.83 1.835,1.74 2.785,2.61 0.476,0.26 0.996,0.47 1.425,0.79 1.336,0.99 2.051,2.27 3.321,2.92 5.422,2.8 12.636,3.45 17.136,8.48 0.708,3.34 0.063,5.85 -1.238,7.85 -0.398,0.67 -0.879,1.25 -1.433,1.73 -1.528,1.44 -3.457,2.45 -5.5,3.11 -0.188,0.11 -0.364,0.18 -0.743,0.27 -1.914,0.54 -3.781,0.81 -5.378,0.87 -5.161,0.22 -12.766,-1.22 -19.387,-3.04 -5.442,-1.5 -8.977,-4.83 -14.68,-5.67 -9.441,-1.39 -14.859,-3.71 -20.223,2.56 -5.039,6.37 7.696,41.77 10.704,49.23 6.765,16.68 34.804,43.5 19.336,62.22 -13.918,16.83 -63.399,16.11 -80.411,5.59 -12.257,-7.58 -21.836,-19.8 -29.57,-33.92 -0.519,11.11 -2.519,19.76 -8.652,21.01 -11.075,2.24 -15.594,-25.83 -16.934,-34.03 -0.867,-5.42 -1.926,-10.79 -3.016,-16.16 -2.453,-12.03 -3.554,-24.4 -6.652,-36.43 -0.625,-2.42 -1.094,-5.37 -1.406,-8.9 -0.059,-0.47 -0.117,-0.94 -0.137,-1.37 -0.051,-0.82 -0.168,-1.38 -0.215,-2.26 -0.675,-12.17 -3.132,-22.43 -6.093,-33.28 -0.274,-0.63 -0.625,-1.2 -0.887,-1.84 -8.652,-19.67 -19.559,-36.34 -32.438,-52.84 -6.047,-7.74 -11.824,-15.99 -17.988,-23.59 -11.82,-14.58 -22.398,-29.62 -32.637,-44.91 -6.535,-8.6 -12.359,-17.95 -18.047,-27.35 -3.722,-5.64 -7.375,-11.29 -10.777,-17.21 -4.281,-6.52 -8.359,-12.93 -12.019,-19.06 -16.067,-27.05 -26.403,-50.41 -32.801,-69.96 -2.781,-9.1 -5.137,-18.41 -7.051,-28.18 2.395,-11.87 7.762,-20.67 14.336,-28.21 11.465,-7.87 22.5,-15.7 33.613,-23.05 11.114,-7.39 22.223,-14.3 34.203,-20.4 10.618,-3.71 20.481,-7.31 29.774,-10.79 9.285,-3.46 18.015,-6.76 26.387,-9.84 62.765,-20.57 118.089,-20.57 179.105,-24.05 9.641,-2.11 18.848,-5.71 27.449,-11.35 20.024,-13.07 33.996,-49.05 48.039,-68.57 10.16802,-14.0683 20.5171,-27.9841 30.59237,-42.1045 7.42066,-10.4 14.69279,-20.9109 21.63463,-31.6755 7.765,-12.03 13.965,-24.39 18.906,-36.99 h 9.723 l 4.015,-55.01 c 1.008,-8.13 1.528,-16.34 1.797,-24.57 l 8.446,-115.56 h -21.879 c -5.727,-25.17 -12.555,-50.02 -19.211,-74.09 -14.285,-51.63 -29.895,-103.52 -35.125,-157.129 -5.356,-55.09 11.011,-106.641 -6.789,-160.883 -7.743,-23.566 -29.629,-36.957 -49.688,-48.387 -36.57,-20.75 -71.847,-40.019 -105.078,-66.5 -2.996,-2.371 -5.945,-4.769 -8.762,-7.082 -19.922,-16.461 -36.609,-38 -54.715,-56.519 -10.039,-10.231 -21.906,-16.219 -35.91,-18.211 -23.445,-3.348 -49.812,3.73 -69.566,-12.527 -23.141,-19.051 -20.109,-52.543 -27.918,-78.524 -8.594,-28.738 -29.074,-52.277 -36.059,-82.848 -4.023,-17.558 -5.578,-35.57 -3.941,-53.519 1.34,-14.379 10.519,-34.512 4.469,-48.672 7.593,-3.437 35.019,-11.719 38.324,-18.711 -1.707,3.613 -2.664,7.293 -2.664,10.953 0,7.649 1.976,14.809 5.687,21.469 34.168,50.102 93.926,70.57 134.864,102.578 7.07,5.492 14.238,11.094 21.523,16.652 14.602,11.059 29.629,21.661 45.371,31.551 124.793,34.278 246.184,78.77 389.415,103.008 77.89,43.481 86.24,158.32 117.07,250.152 19.06,24.09 45.61,27.758 62.13,51.489 3.11,4.48 0.65,21.961 1.02,28.058 0.67,10.403 1.61,20.774 2.67,31.121 2.11,20.512 4.71,40.911 6.83,61.403 5.59,53.908 -7.69,113.978 -28.61,163.388 -1.63,3.85 -3.02,7.83 -4.46,11.78 h -10.13 l 3.6,20.44 c -10.22,37.39 -13.09,77.97 -10.81,116.78 0.41,6.92 1.42,13.84 2.65,20.75 h -25.27 l -27.85,-157.97 h -45.9 l 27.82,157.97 h -40.98 l 6.52,37.17 h 114.71 c 6.24,21.24 13.41,42.43 17.62,63.57 0.5449,2.7109 1.0009,5.4733 1.3774,8.2782 3.7898,28.2358 -0.4838,60.7806 -3.3674,88.4518 -3.54,33.45 -9.78,70.89 4.87,102.58 11.81,7.49 24.24,14.34 38.21,19.62 16.07,6.08 45.53,0.18 62.79,0.35 20.65,0.22 41.25,0.54 61.86,1.08 39.34,1.03 78.65,2.9 117.81,6.57 71.53,6.7 142.01,20.23 209.4,46.18 24.18,9.29 48.47,19.21 74.04,24.06 25.35,4.8 49,0.89 74.47,2.01 14.4,0.63 26.78,5.33 40.55,7.54 12.42,1.99 26.5,-1.14 39.35,0.06 12.17,1.14 26.86,0.44 38.72,3.69 9.92,2.75 41.67,14.6 19.39,23.6"
         style="fill:#000000;fill-opacity:1;fill-rule:nonzero;stroke:none"
         id="path7460"
         inkscape:connector-curvature="0"
         sodipodi:nodetypes="cccccccccccccccccccccccccccccccccccccccccccccccccccccccccccccccccccccccccccccccccccccccccccccccccccscccccccccccccccccccccsccccccccccccccccccccccccsccccccccccccc" /><path
         style="fill:#000000;fill-opacity:1;fill-rule:nonzero;stroke:none;stroke-width:0.13333333"
         d="M 300.97633,142.80231 C 294.9024,110.43245 277.98903,80.837183 252.53906,59.005859 l -2.48633,2.900391 c 31.53067,27.049333 49.60938,66.33414 49.60938,107.85547 0,78.3224 -63.72164,142.04297 -142.04297,142.04297 -78.324397,0 -142.044921,-63.72057 -142.044921,-142.04297 0,-66.59333 45.261746,-123.517689 110.066401,-138.429689 L 124.7832,27.611328 C 58.410058,41.659488 20.843726,98.143892 14.267528,142.95901 L 1.6054688,147.43359 C 0.54035934,154.86554 0,162.45919 0,170.00586 c 0,86.85186 70.660571,157.51367 157.51562,157.51367 86.85336,0 157.51563,-70.66181 157.51563,-157.51367 -0.17849,-7.87886 -0.69143,-16.04692 -1.60161,-22.57029 z"
         transform="matrix(7.5000002,0,0,-7.5000002,0,2456.4001)"
         id="path7462"
         inkscape:connector-curvature="0"
         sodipodi:nodetypes="cccsssccccssccc" /><path
         d="m 1513.94,2313.99 c 0,-78.71 -63.79,-142.5 -142.49,-142.5 -78.69,0 -142.49,63.79 -142.49,142.5 0,78.68 63.8,142.46 142.49,142.46 78.7,0 142.49,-63.78 142.49,-142.46"
         style="fill:#000000;fill-opacity:1;fill-rule:evenodd;stroke:none"
         id="path7472"
         inkscape:connector-curvature="0" /><path
         style="fill:#000000;fill-opacity:1;fill-rule:nonzero;stroke:none;stroke-width:0.13333333"
         d="M 124.00586 24.117188 C 123.94173 24.131854 123.87947 24.146823 123.81641 24.160156 L 123.81641 24.162109 C 91.389874 31.628776 61.963651 50.092964 40.958984 76.154297 C 19.636052 102.60896 7.8925781 135.92928 7.8925781 169.97461 C 7.8925781 252.47621 75.012694 319.5957 157.51562 319.5957 C 240.01696 319.5957 307.13672 252.47621 307.13672 169.97461 C 307.13672 126.22794 288.08747 84.835129 254.85547 56.341797 L 252.26758 59.285156 C 277.74384 81.11341 294.66232 110.72583 300.72461 143.11328 C 288.79421 140.06719 185.9511 136.55469 158.66602 136.55469 C 131.08133 136.55469 40.162317 139.52148 14.134766 143.78516 C 24.289954 87.145505 66.922439 41.274115 124.71289 27.976562 L 124.71289 27.974609 C 124.76969 27.962609 124.82583 27.94888 124.88477 27.935547 L 124.00586 24.117188 z M 72.847656 145.96484 C 78.241523 145.96484 80.780545 148.29654 79.705078 154.42188 L 79.511719 155.51562 L 73.605469 155.51562 C 74.271602 151.72229 74.129091 150.04883 72.087891 150.04883 C 69.645757 150.04883 69.01552 152.37931 67.814453 159.19531 C 66.450986 166.92198 66.351764 168.92578 68.904297 168.92578 C 71.169363 168.92578 71.87962 166.3383 72.626953 162.29297 L 78.535156 162.29297 L 78.373047 163.20312 C 77.381847 168.81646 75.072501 173.00586 67.490234 173.00586 C 59.651701 173.00586 60.070858 167.13935 61.453125 159.30469 C 62.631792 152.63402 64.170056 145.96484 72.847656 145.96484 z M 21.982422 146.47656 L 28.542969 146.47656 L 28.097656 166.5918 L 28.164062 166.5918 L 34.849609 146.47656 L 41.408203 146.47656 L 30.916016 172.49609 L 23.115234 172.49609 L 21.982422 146.47656 z M 43.380859 146.47656 L 52.890625 146.47656 C 57.335425 146.47656 59.92429 148.55267 59.160156 152.88867 C 58.628423 155.91267 56.606922 158.28448 54.044922 158.75781 L 54.029297 158.83008 C 55.909963 159.12341 58.642772 159.95858 57.701172 165.28125 C 57.163705 168.34125 55.083019 172.49609 47.824219 172.49609 L 38.789062 172.49609 L 43.380859 146.47656 z M 93.34375 146.47656 L 99.470703 146.47656 L 97.660156 156.75195 L 97.730469 156.75195 L 105.26562 146.47656 L 111.86133 146.47656 L 103.06445 157.69922 L 108 172.1582 L 119.07422 146.47656 L 126.73438 146.47656 L 128.63477 172.49609 L 122.28906 172.49609 L 122.2168 167.53906 L 115.98438 167.53906 L 114.19922 172.49609 L 108.11523 172.49609 L 108 172.1582 L 107.85156 172.49609 L 101.22461 172.49609 L 98.251953 162.69336 L 96.167969 165.20703 L 94.882812 172.49609 L 88.753906 172.49609 L 93.34375 146.47656 z M 135.19141 146.47656 L 142.22461 146.47656 L 144.27344 163.38477 L 144.3457 163.38477 L 147.33008 146.47656 L 153.00977 146.47656 L 148.42578 172.49609 L 141.50195 172.49609 L 139.30469 154.56445 L 139.22656 154.56445 L 136.06836 172.49609 L 130.60156 172.49609 L 135.19141 146.47656 z M 155.12305 146.47656 L 172.18359 146.47656 L 171.30859 151.43359 L 165.8418 151.43359 L 162.12695 172.49609 L 156.00586 172.49609 L 159.7168 151.43359 L 154.25195 151.43359 L 155.12305 146.47656 z M 174.40234 146.47656 L 180.53125 146.47656 L 175.94336 172.49609 L 169.81641 172.49609 L 174.40234 146.47656 z M 193.9082 146.47656 L 203.42188 146.47656 C 207.86987 146.47656 210.4555 148.55267 209.6875 152.88867 C 209.15417 155.91267 207.13103 158.28448 204.56836 158.75781 L 204.55664 158.83008 C 206.43797 159.12341 209.16709 159.95858 208.23242 165.28125 C 207.69109 168.34125 205.61004 172.49609 198.35938 172.49609 L 189.31641 172.49609 L 193.9082 146.47656 z M 219.63477 146.47656 L 227.29297 146.47656 L 229.19531 172.49609 L 222.84766 172.49609 L 222.77734 167.53906 L 216.54102 167.53906 L 214.75391 172.49609 L 208.41602 172.49609 L 219.63477 146.47656 z M 235.74609 146.47656 L 244.82617 146.47656 C 250.87284 146.47656 252.90707 149.60772 251.31641 158.65039 C 249.65241 168.08506 247.6699 172.49609 239.61523 172.49609 L 231.1582 172.49609 L 235.74609 146.47656 z M 256.66992 146.47656 L 271.72266 146.47656 L 270.85156 151.43359 L 261.92188 151.43359 L 261 156.64453 L 269.38281 156.64453 L 268.50977 161.59961 L 260.12695 161.59961 L 259.07812 167.53906 L 268.4082 167.53906 L 267.53516 172.49609 L 252.08008 172.49609 L 256.66992 146.47656 z M 274.89258 146.47656 L 281.92578 146.47656 L 283.97266 163.38477 L 284.05273 163.38477 L 287.02734 146.47656 L 292.71875 146.47656 L 288.12695 172.49609 L 281.20312 172.49609 L 279.00391 154.56445 L 278.93555 154.56445 L 275.77344 172.49609 L 270.30078 172.49609 L 274.89258 146.47656 z M 48.705078 150.99414 L 47.669922 156.85938 L 49.347656 156.85938 C 51.460723 156.85938 52.548867 155.65945 52.875 153.80078 C 53.112467 152.45278 52.643969 150.99414 50.417969 150.99414 L 48.705078 150.99414 z M 199.22852 150.99414 L 198.19727 156.85938 L 199.875 156.85938 C 201.98967 156.85938 203.07506 155.65945 203.40039 153.80078 C 203.64039 152.45278 203.17003 150.99414 200.94336 150.99414 L 199.22852 150.99414 z M 241.07422 150.99414 L 238.07812 167.97656 L 239.72266 167.97656 C 242.56132 167.97656 243.74695 166.84945 245.12695 159.05078 C 246.24162 152.70945 246.02978 150.99414 242.78711 150.99414 L 241.07422 150.99414 z M 121.89062 151.21289 L 117.69336 162.80078 L 122.14062 162.80078 L 121.96289 151.21289 L 121.89062 151.21289 z M 222.44727 151.21289 L 218.25 162.80078 L 222.69922 162.80078 L 222.51953 151.21289 L 222.44727 151.21289 z M 46.951172 160.94531 L 45.705078 167.97656 L 47.570312 167.97656 C 50.045379 167.97656 51.163975 166.40851 51.484375 164.58984 C 51.931708 162.03518 50.815129 160.94531 48.914062 160.94531 L 46.951172 160.94531 z M 197.48047 160.94531 L 196.23828 167.97656 L 198.0957 167.97656 C 200.5717 167.97656 201.69172 166.40851 202.01172 164.58984 C 202.45972 162.03518 201.34203 160.94531 199.44336 160.94531 L 197.48047 160.94531 z M 11.980469 176.96484 C 34.008815 179.80209 145.06938 182.64258 158.66602 182.64258 C 192.55556 182.64258 294.88188 177.80193 303.0332 177.41406 C 299.14669 254.31199 235.36077 315.67969 157.51562 315.67969 C 79.515813 315.67969 15.641139 254.07236 11.980469 176.96484 z "
         transform="matrix(7.5000002,0,0,-7.5000002,0,2456.4001)"
         id="path7474" /></g></g></svg>